<?xml version="1.0" encoding="utf-8"?>
<!-- Generator: Adobe Illustrator 16.0.0, SVG Export Plug-In . SVG Version: 6.00 Build 0)  -->
<!DOCTYPE svg PUBLIC "-//W3C//DTD SVG 1.1//EN" "http://www.w3.org/Graphics/SVG/1.1/DTD/svg11.dtd">
<svg version="1.1" id="Layer_1" xmlns:sketch="http://www.bohemiancoding.com/sketch/ns"
	 xmlns="http://www.w3.org/2000/svg" xmlns:xlink="http://www.w3.org/1999/xlink" x="0px" y="0px" width="44px" height="64px"
	 viewBox="0 0 44 64" enable-background="new 0 0 44 64" xml:space="preserve">
<title>stop</title>
<desc>Created with Sketch.</desc>
<g id="Tablet-9_x2033_-Landscape-Copy" transform="translate(-77.000000, -1413.000000)" sketch:type="MSArtboardGroup" opacity="0.8">
	<g id="bottom" transform="translate(71.000000, 1413.000000)" sketch:type="MSLayerGroup">
		<g id="stop" transform="translate(6.000000, 0.000000)" sketch:type="MSShapeGroup">
			<path id="Rectangle-164" fill="#FFFFFF" d="M3,0h10c1.657,0,3,1.343,3,3v58c0,1.656-1.343,3-3,3H3c-1.657,0-3-1.344-3-3V3
				C0,1.343,1.343,0,3,0z"/>
			<path id="Rectangle-164-Copy" fill="#FFFFFF" d="M30.5,0h10c1.656,0,3,1.343,3,3v58c0,1.656-1.344,3-3,3h-10
				c-1.656,0-3-1.344-3-3V3C27.5,1.343,28.844,0,30.5,0z"/>
		</g>
	</g>
</g>
</svg>
